<?xml version="1.0" encoding="utf-8"?>
<!-- Generator: Adobe Illustrator 27.5.0, SVG Export Plug-In . SVG Version: 6.00 Build 0)  -->
<svg version="1.1" id="Layer_1" xmlns="http://www.w3.org/2000/svg" xmlns:xlink="http://www.w3.org/1999/xlink" x="0px" y="0px"
	 viewBox="0 0 512 512" xml:space="preserve" >
<g>
	<g>
		<path style="fill:#D2D3D5;" d="M338.619,346.213H55.982c-0.275,0-0.5-0.224-0.5-0.5V52.405c0-0.276,0.225-0.5,0.5-0.5h282.637
			c0.275,0,0.5,0.224,0.5,0.5v293.308C339.119,345.989,338.895,346.213,338.619,346.213z M56.482,345.213h281.637V52.905H56.482
			V345.213z M326.103,71.578c-3.246,0-5.887-2.64-5.887-5.885c0-3.245,2.641-5.886,5.887-5.886c3.244,0,5.885,2.641,5.885,5.886
			C331.988,68.938,329.348,71.578,326.103,71.578z M326.103,60.808c-2.695,0-4.887,2.191-4.887,4.886
			c0,2.693,2.191,4.885,4.887,4.885c2.693,0,4.885-2.191,4.885-4.885C330.988,62.999,328.797,60.808,326.103,60.808z
				M307.703,71.578c-3.246,0-5.887-2.64-5.887-5.885c0-3.245,2.641-5.886,5.887-5.886c3.244,0,5.885,2.641,5.885,5.886
			C313.588,68.938,310.947,71.578,307.703,71.578z M307.703,60.808c-2.695,0-4.887,2.191-4.887,4.886
			c0,2.693,2.191,4.885,4.887,4.885c2.693,0,4.885-2.191,4.885-4.885C312.588,62.999,310.397,60.808,307.703,60.808z
				M289.303,71.578c-3.246,0-5.887-2.64-5.887-5.885c0-3.245,2.641-5.886,5.887-5.886c3.244,0,5.885,2.641,5.885,5.886
			C295.188,68.938,292.547,71.578,289.303,71.578z M289.303,60.808c-2.695,0-4.887,2.191-4.887,4.886
			c0,2.693,2.191,4.885,4.887,4.885c2.693,0,4.885-2.191,4.885-4.885C294.188,62.999,291.996,60.808,289.303,60.808z
				M270.902,71.578c-3.246,0-5.885-2.64-5.885-5.885c0-3.245,2.639-5.886,5.885-5.886c3.244,0,5.885,2.641,5.885,5.886
			C276.787,68.938,274.147,71.578,270.902,71.578z M270.902,60.808c-2.693,0-4.885,2.191-4.885,4.886
			c0,2.693,2.191,4.885,4.885,4.885c2.693,0,4.885-2.191,4.885-4.885C275.787,62.999,273.596,60.808,270.902,60.808z
				M252.502,71.578c-3.246,0-5.885-2.64-5.885-5.885c0-3.245,2.639-5.886,5.885-5.886c3.244,0,5.885,2.641,5.885,5.886
			C258.387,68.938,255.746,71.578,252.502,71.578z M252.502,60.808c-2.693,0-4.885,2.191-4.885,4.886
			c0,2.693,2.191,4.885,4.885,4.885c2.693,0,4.885-2.191,4.885-4.885C257.387,62.999,255.195,60.808,252.502,60.808z
				M234.102,71.578c-3.246,0-5.885-2.64-5.885-5.885c0-3.245,2.639-5.886,5.885-5.886c3.244,0,5.885,2.641,5.885,5.886
			C239.986,68.938,237.346,71.578,234.102,71.578z M234.102,60.808c-2.693,0-4.885,2.191-4.885,4.886
			c0,2.693,2.191,4.885,4.885,4.885c2.693,0,4.885-2.191,4.885-4.885C238.986,62.999,236.795,60.808,234.102,60.808z
				M215.701,71.578c-3.246,0-5.885-2.64-5.885-5.885c0-3.245,2.639-5.886,5.885-5.886c3.244,0,5.885,2.641,5.885,5.886
			C221.586,68.938,218.945,71.578,215.701,71.578z M215.701,60.808c-2.693,0-4.885,2.191-4.885,4.886
			c0,2.693,2.191,4.885,4.885,4.885c2.693,0,4.885-2.191,4.885-4.885C220.586,62.999,218.395,60.808,215.701,60.808z
				M197.301,71.578c-3.246,0-5.885-2.64-5.885-5.885c0-3.245,2.639-5.886,5.885-5.886c3.244,0,5.885,2.641,5.885,5.886
			C203.186,68.938,200.545,71.578,197.301,71.578z M197.301,60.808c-2.693,0-4.885,2.191-4.885,4.886
			c0,2.693,2.191,4.885,4.885,4.885c2.693,0,4.885-2.191,4.885-4.885C202.186,62.999,199.994,60.808,197.301,60.808z M178.9,71.578
			c-3.244,0-5.885-2.64-5.885-5.885c0-3.245,2.641-5.886,5.885-5.886c3.246,0,5.887,2.641,5.887,5.886
			C184.787,68.938,182.146,71.578,178.9,71.578z M178.9,60.808c-2.693,0-4.885,2.191-4.885,4.886c0,2.693,2.191,4.885,4.885,4.885
			c2.695,0,4.887-2.191,4.887-4.885C183.787,62.999,181.596,60.808,178.9,60.808z M160.5,71.578c-3.244,0-5.885-2.64-5.885-5.885
			c0-3.245,2.641-5.886,5.885-5.886c3.246,0,5.887,2.641,5.887,5.886C166.387,68.938,163.746,71.578,160.5,71.578z M160.5,60.808
			c-2.693,0-4.885,2.191-4.885,4.886c0,2.693,2.191,4.885,4.885,4.885c2.695,0,4.887-2.191,4.887-4.885
			C165.387,62.999,163.195,60.808,160.5,60.808z M142.102,71.578c-3.246,0-5.887-2.64-5.887-5.885c0-3.245,2.641-5.886,5.887-5.886
			c3.244,0,5.885,2.641,5.885,5.886C147.986,68.938,145.346,71.578,142.102,71.578z M142.102,60.808
			c-2.695,0-4.887,2.191-4.887,4.886c0,2.693,2.191,4.885,4.887,4.885c2.693,0,4.885-2.191,4.885-4.885
			C146.986,62.999,144.795,60.808,142.102,60.808z M123.701,71.578c-3.246,0-5.887-2.64-5.887-5.885
			c0-3.245,2.641-5.886,5.887-5.886c3.244,0,5.885,2.641,5.885,5.886C129.586,68.938,126.945,71.578,123.701,71.578z
				M123.701,60.808c-2.695,0-4.887,2.191-4.887,4.886c0,2.693,2.191,4.885,4.887,4.885c2.693,0,4.885-2.191,4.885-4.885
			C128.586,62.999,126.395,60.808,123.701,60.808z M105.301,71.578c-3.246,0-5.885-2.64-5.885-5.885
			c0-3.245,2.639-5.886,5.885-5.886c3.244,0,5.885,2.641,5.885,5.886C111.186,68.938,108.545,71.578,105.301,71.578z
				M105.301,60.808c-2.693,0-4.885,2.191-4.885,4.886c0,2.693,2.191,4.885,4.885,4.885c2.693,0,4.885-2.191,4.885-4.885
			C110.186,62.999,107.994,60.808,105.301,60.808z M86.9,71.578c-3.246,0-5.885-2.64-5.885-5.885c0-3.245,2.639-5.886,5.885-5.886
			c3.244,0,5.885,2.641,5.885,5.886C92.785,68.938,90.145,71.578,86.9,71.578z M86.9,60.808c-2.693,0-4.885,2.191-4.885,4.886
			c0,2.693,2.191,4.885,4.885,4.885c2.693,0,4.885-2.191,4.885-4.885C91.785,62.999,89.594,60.808,86.9,60.808z M68.5,71.578
			c-3.246,0-5.885-2.64-5.885-5.885c0-3.245,2.639-5.886,5.885-5.886c3.244,0,5.885,2.641,5.885,5.886
			C74.385,68.938,71.744,71.578,68.5,71.578z M68.5,60.808c-2.693,0-4.885,2.191-4.885,4.886c0,2.693,2.191,4.885,4.885,4.885
			s4.885-2.191,4.885-4.885C73.385,62.999,71.193,60.808,68.5,60.808z"/>
		<g>
		</g>
		<g>
			<g>
				<g>
					<path style="fill:#A4A7A9;" d="M68.025,67.631c0,0.654-0.531,1.185-1.186,1.185l0,0c-0.654,0-1.186-0.53-1.186-1.185V50.076
						c0-0.655,0.531-1.186,1.186-1.186l0,0c0.654,0,1.186,0.53,1.186,1.186V67.631z"/>
					<path style="fill:#7B7D80;" d="M66.84,69.315c-0.93,0-1.686-0.756-1.686-1.685V50.076c0-0.93,0.756-1.686,1.686-1.686
						c0.93,0,1.686,0.756,1.686,1.686v17.555C68.525,68.56,67.77,69.315,66.84,69.315z M66.84,49.391
						c-0.379,0-0.686,0.308-0.686,0.686v17.555c0,0.378,0.307,0.685,0.686,0.685c0.377,0,0.686-0.307,0.686-0.685V50.076
						C67.525,49.698,67.217,49.391,66.84,49.391z"/>
				</g>
				<g>
					<path style="fill:#A4A7A9;" d="M71.471,67.631c0,0.654-0.529,1.185-1.184,1.185l0,0c-0.654,0-1.186-0.53-1.186-1.185V50.076
						c0-0.655,0.531-1.186,1.186-1.186l0,0c0.654,0,1.184,0.53,1.184,1.186V67.631z"/>
					<path style="fill:#7B7D80;" d="M70.287,69.315c-0.93,0-1.686-0.756-1.686-1.685V50.076c0-0.93,0.756-1.686,1.686-1.686
						c0.928,0,1.684,0.756,1.684,1.686v17.555C71.971,68.56,71.215,69.315,70.287,69.315z M70.287,49.391
						c-0.379,0-0.686,0.308-0.686,0.686v17.555c0,0.378,0.307,0.685,0.686,0.685c0.377,0,0.684-0.307,0.684-0.685V50.076
						C70.971,49.698,70.664,49.391,70.287,49.391z"/>
				</g>
			</g>
			<g>
				<g>
					<path style="fill:#A4A7A9;" d="M86.41,67.631c0,0.654-0.531,1.185-1.184,1.185l0,0c-0.654,0-1.186-0.53-1.186-1.185V50.076
						c0-0.655,0.531-1.186,1.186-1.186l0,0c0.652,0,1.184,0.53,1.184,1.186V67.631z"/>
					<path style="fill:#7B7D80;" d="M85.227,69.315c-0.93,0-1.686-0.756-1.686-1.685V50.076c0-0.93,0.756-1.686,1.686-1.686
						c0.928,0,1.684,0.756,1.684,1.686v17.555C86.91,68.56,86.154,69.315,85.227,69.315z M85.227,49.391
						c-0.379,0-0.686,0.308-0.686,0.686v17.555c0,0.378,0.307,0.685,0.686,0.685c0.377,0,0.684-0.307,0.684-0.685V50.076
						C85.91,49.698,85.604,49.391,85.227,49.391z"/>
				</g>
				<g>
					<path style="fill:#A4A7A9;" d="M89.857,67.631c0,0.654-0.531,1.185-1.184,1.185l0,0c-0.656,0-1.186-0.53-1.186-1.185V50.076
						c0-0.655,0.529-1.186,1.186-1.186l0,0c0.652,0,1.184,0.53,1.184,1.186V67.631z"/>
					<path style="fill:#7B7D80;" d="M88.674,69.315c-0.93,0-1.686-0.756-1.686-1.685V50.076c0-0.93,0.756-1.686,1.686-1.686
						c0.928,0,1.684,0.756,1.684,1.686v17.555C90.357,68.56,89.602,69.315,88.674,69.315z M88.674,49.391
						c-0.379,0-0.686,0.308-0.686,0.686v17.555c0,0.378,0.307,0.685,0.686,0.685c0.377,0,0.684-0.307,0.684-0.685V50.076
						C89.357,49.698,89.051,49.391,88.674,49.391z"/>
				</g>
			</g>
			<g>
				<g>
					<path style="fill:#A4A7A9;" d="M104.797,67.631c0,0.654-0.531,1.185-1.186,1.185l0,0c-0.654,0-1.184-0.53-1.184-1.185V50.076
						c0-0.655,0.529-1.186,1.184-1.186l0,0c0.654,0,1.186,0.53,1.186,1.186V67.631z"/>
					<path style="fill:#7B7D80;" d="M103.611,69.315c-0.928,0-1.684-0.756-1.684-1.685V50.076c0-0.93,0.756-1.686,1.684-1.686
						c0.93,0,1.686,0.756,1.686,1.686v17.555C105.297,68.56,104.541,69.315,103.611,69.315z M103.611,49.391
						c-0.377,0-0.684,0.308-0.684,0.686v17.555c0,0.378,0.307,0.685,0.684,0.685c0.379,0,0.686-0.307,0.686-0.685V50.076
						C104.297,49.698,103.99,49.391,103.611,49.391z"/>
				</g>
				<g>
					<path style="fill:#A4A7A9;" d="M108.244,67.631c0,0.654-0.531,1.185-1.186,1.185l0,0c-0.654,0-1.186-0.53-1.186-1.185V50.076
						c0-0.655,0.531-1.186,1.186-1.186l0,0c0.654,0,1.186,0.53,1.186,1.186V67.631z"/>
					<path style="fill:#7B7D80;" d="M107.059,69.315c-0.93,0-1.686-0.756-1.686-1.685V50.076c0-0.93,0.756-1.686,1.686-1.686
						c0.93,0,1.686,0.756,1.686,1.686v17.555C108.744,68.56,107.988,69.315,107.059,69.315z M107.059,49.391
						c-0.379,0-0.686,0.308-0.686,0.686v17.555c0,0.378,0.307,0.685,0.686,0.685c0.377,0,0.686-0.307,0.686-0.685V50.076
						C107.744,49.698,107.436,49.391,107.059,49.391z"/>
				</g>
			</g>
			<g>
				<g>
					<path style="fill:#A4A7A9;" d="M123.184,67.631c0,0.654-0.531,1.185-1.186,1.185l0,0c-0.654,0-1.186-0.53-1.186-1.185V50.076
						c0-0.655,0.531-1.186,1.186-1.186l0,0c0.654,0,1.186,0.53,1.186,1.186V67.631z"/>
					<path style="fill:#7B7D80;" d="M121.998,69.315c-0.93,0-1.686-0.756-1.686-1.685V50.076c0-0.93,0.756-1.686,1.686-1.686
						c0.93,0,1.686,0.756,1.686,1.686v17.555C123.684,68.56,122.928,69.315,121.998,69.315z M121.998,49.391
						c-0.379,0-0.686,0.308-0.686,0.686v17.555c0,0.378,0.307,0.685,0.686,0.685c0.377,0,0.686-0.307,0.686-0.685V50.076
						C122.684,49.698,122.375,49.391,121.998,49.391z"/>
				</g>
				<g>
					<path style="fill:#A4A7A9;" d="M126.629,67.631c0,0.654-0.529,1.185-1.184,1.185l0,0c-0.654,0-1.185-0.53-1.185-1.185V50.076
						c0-0.655,0.531-1.186,1.185-1.186l0,0c0.654,0,1.184,0.53,1.184,1.186V67.631z"/>
					<path style="fill:#7B7D80;" d="M125.445,69.315c-0.93,0-1.685-0.756-1.685-1.685V50.076c0-0.93,0.756-1.686,1.685-1.686
						c0.928,0,1.684,0.756,1.684,1.686v17.555C127.129,68.56,126.373,69.315,125.445,69.315z M125.445,49.391
						c-0.379,0-0.685,0.308-0.685,0.686v17.555c0,0.378,0.307,0.685,0.685,0.685c0.377,0,0.684-0.307,0.684-0.685V50.076
						C126.129,49.698,125.822,49.391,125.445,49.391z"/>
				</g>
			</g>
			<g>
				<g>
					<path style="fill:#A4A7A9;" d="M141.568,67.631c0,0.654-0.531,1.185-1.184,1.185l0,0c-0.654,0-1.186-0.53-1.186-1.185V50.076
						c0-0.655,0.531-1.186,1.186-1.186l0,0c0.652,0,1.184,0.53,1.184,1.186V67.631z"/>
					<path style="fill:#7B7D80;" d="M140.385,69.315c-0.93,0-1.686-0.756-1.686-1.685V50.076c0-0.93,0.756-1.686,1.686-1.686
						c0.928,0,1.684,0.756,1.684,1.686v17.555C142.068,68.56,141.313,69.315,140.385,69.315z M140.385,49.391
						c-0.379,0-0.686,0.308-0.686,0.686v17.555c0,0.378,0.307,0.685,0.686,0.685c0.377,0,0.684-0.307,0.684-0.685V50.076
						C141.068,49.698,140.762,49.391,140.385,49.391z"/>
				</g>
				<g>
					<path style="fill:#A4A7A9;" d="M145.016,67.631c0,0.654-0.531,1.185-1.186,1.185l0,0c-0.654,0-1.184-0.53-1.184-1.185V50.076
						c0-0.655,0.529-1.186,1.184-1.186l0,0c0.654,0,1.186,0.53,1.186,1.186V67.631z"/>
					<path style="fill:#7B7D80;" d="M143.83,69.315c-0.928,0-1.684-0.756-1.684-1.685V50.076c0-0.93,0.756-1.686,1.684-1.686
						c0.93,0,1.686,0.756,1.686,1.686v17.555C145.516,68.56,144.76,69.315,143.83,69.315z M143.83,49.391
						c-0.377,0-0.684,0.308-0.684,0.686v17.555c0,0.378,0.307,0.685,0.684,0.685c0.379,0,0.686-0.307,0.686-0.685V50.076
						C144.516,49.698,144.209,49.391,143.83,49.391z"/>
				</g>
			</g>
			<g>
				<g>
					<path style="fill:#A4A7A9;" d="M159.955,67.631c0,0.654-0.531,1.185-1.186,1.185l0,0c-0.654,0-1.186-0.53-1.186-1.185V50.076
						c0-0.655,0.531-1.186,1.186-1.186l0,0c0.654,0,1.186,0.53,1.186,1.186V67.631z"/>
					<path style="fill:#7B7D80;" d="M158.77,69.315c-0.93,0-1.686-0.756-1.686-1.685V50.076c0-0.93,0.756-1.686,1.686-1.686
						s1.686,0.756,1.686,1.686v17.555C160.455,68.56,159.699,69.315,158.77,69.315z M158.77,49.391
						c-0.379,0-0.686,0.308-0.686,0.686v17.555c0,0.378,0.307,0.685,0.686,0.685c0.377,0,0.686-0.307,0.686-0.685V50.076
						C159.455,49.698,159.146,49.391,158.77,49.391z"/>
				</g>
				<g>
					<path style="fill:#A4A7A9;" d="M163.4,67.631c0,0.654-0.529,1.185-1.184,1.185l0,0c-0.654,0-1.186-0.53-1.186-1.185V50.076
						c0-0.655,0.531-1.186,1.186-1.186l0,0c0.654,0,1.184,0.53,1.184,1.186V67.631z"/>
					<path style="fill:#7B7D80;" d="M162.217,69.315c-0.93,0-1.686-0.756-1.686-1.685V50.076c0-0.93,0.756-1.686,1.686-1.686
						c0.928,0,1.684,0.756,1.684,1.686v17.555C163.9,68.56,163.145,69.315,162.217,69.315z M162.217,49.391
						c-0.379,0-0.686,0.308-0.686,0.686v17.555c0,0.378,0.307,0.685,0.686,0.685c0.377,0,0.684-0.307,0.684-0.685V50.076
						C162.9,49.698,162.594,49.391,162.217,49.391z"/>
				</g>
			</g>
			<g>
				<g>
					<path style="fill:#A4A7A9;" d="M178.34,67.631c0,0.654-0.529,1.185-1.184,1.185l0,0c-0.654,0-1.186-0.53-1.186-1.185V50.076
						c0-0.655,0.531-1.186,1.186-1.186l0,0c0.654,0,1.184,0.53,1.184,1.186V67.631z"/>
					<path style="fill:#7B7D80;" d="M177.156,69.315c-0.93,0-1.686-0.756-1.686-1.685V50.076c0-0.93,0.756-1.686,1.686-1.686
						c0.928,0,1.684,0.756,1.684,1.686v17.555C178.84,68.56,178.084,69.315,177.156,69.315z M177.156,49.391
						c-0.379,0-0.686,0.308-0.686,0.686v17.555c0,0.378,0.307,0.685,0.686,0.685c0.377,0,0.684-0.307,0.684-0.685V50.076
						C177.84,49.698,177.533,49.391,177.156,49.391z"/>
				</g>
				<g>
					<path style="fill:#A4A7A9;" d="M181.787,67.631c0,0.654-0.531,1.185-1.184,1.185l0,0c-0.656,0-1.186-0.53-1.186-1.185V50.076
						c0-0.655,0.529-1.186,1.186-1.186l0,0c0.652,0,1.184,0.53,1.184,1.186V67.631z"/>
					<path style="fill:#7B7D80;" d="M180.604,69.315c-0.93,0-1.686-0.756-1.686-1.685V50.076c0-0.93,0.756-1.686,1.686-1.686
						c0.928,0,1.684,0.756,1.684,1.686v17.555C182.287,68.56,181.531,69.315,180.604,69.315z M180.604,49.391
						c-0.379,0-0.686,0.308-0.686,0.686v17.555c0,0.378,0.307,0.685,0.686,0.685c0.377,0,0.684-0.307,0.684-0.685V50.076
						C181.287,49.698,180.98,49.391,180.604,49.391z"/>
				</g>
			</g>
			<g>
				<g>
					<path style="fill:#A4A7A9;" d="M196.727,67.631c0,0.654-0.531,1.185-1.184,1.185l0,0c-0.654,0-1.186-0.53-1.186-1.185V50.076
						c0-0.655,0.531-1.186,1.186-1.186l0,0c0.652,0,1.184,0.53,1.184,1.186V67.631z"/>
					<path style="fill:#7B7D80;" d="M195.543,69.315c-0.93,0-1.686-0.756-1.686-1.685V50.076c0-0.93,0.756-1.686,1.686-1.686
						c0.928,0,1.684,0.756,1.684,1.686v17.555C197.227,68.56,196.471,69.315,195.543,69.315z M195.543,49.391
						c-0.379,0-0.686,0.308-0.686,0.686v17.555c0,0.378,0.307,0.685,0.686,0.685c0.377,0,0.684-0.307,0.684-0.685V50.076
						C196.227,49.698,195.92,49.391,195.543,49.391z"/>
				</g>
				<g>
					<path style="fill:#A4A7A9;" d="M200.174,67.631c0,0.654-0.531,1.185-1.186,1.185l0,0c-0.654,0-1.184-0.53-1.184-1.185V50.076
						c0-0.655,0.529-1.186,1.184-1.186l0,0c0.654,0,1.186,0.53,1.186,1.186V67.631z"/>
					<path style="fill:#7B7D80;" d="M198.988,69.315c-0.928,0-1.684-0.756-1.684-1.685V50.076c0-0.93,0.756-1.686,1.684-1.686
						c0.93,0,1.686,0.756,1.686,1.686v17.555C200.674,68.56,199.918,69.315,198.988,69.315z M198.988,49.391
						c-0.377,0-0.684,0.308-0.684,0.686v17.555c0,0.378,0.307,0.685,0.684,0.685c0.379,0,0.686-0.307,0.686-0.685V50.076
						C199.674,49.698,199.367,49.391,198.988,49.391z"/>
				</g>
			</g>
			<g>
				<g>
					<path style="fill:#A4A7A9;" d="M215.113,67.631c0,0.654-0.531,1.185-1.186,1.185l0,0c-0.654,0-1.186-0.53-1.186-1.185V50.076
						c0-0.655,0.531-1.186,1.186-1.186l0,0c0.654,0,1.186,0.53,1.186,1.186V67.631z"/>
					<path style="fill:#7B7D80;" d="M213.928,69.315c-0.93,0-1.686-0.756-1.686-1.685V50.076c0-0.93,0.756-1.686,1.686-1.686
						s1.686,0.756,1.686,1.686v17.555C215.613,68.56,214.857,69.315,213.928,69.315z M213.928,49.391
						c-0.379,0-0.686,0.308-0.686,0.686v17.555c0,0.378,0.307,0.685,0.686,0.685c0.377,0,0.686-0.307,0.686-0.685V50.076
						C214.613,49.698,214.305,49.391,213.928,49.391z"/>
				</g>
				<g>
					<path style="fill:#A4A7A9;" d="M218.559,67.631c0,0.654-0.529,1.185-1.184,1.185l0,0c-0.654,0-1.186-0.53-1.186-1.185V50.076
						c0-0.655,0.531-1.186,1.186-1.186l0,0c0.654,0,1.184,0.53,1.184,1.186V67.631z"/>
					<path style="fill:#7B7D80;" d="M217.375,69.315c-0.93,0-1.686-0.756-1.686-1.685V50.076c0-0.93,0.756-1.686,1.686-1.686
						c0.928,0,1.684,0.756,1.684,1.686v17.555C219.059,68.56,218.303,69.315,217.375,69.315z M217.375,49.391
						c-0.379,0-0.686,0.308-0.686,0.686v17.555c0,0.378,0.307,0.685,0.686,0.685c0.377,0,0.684-0.307,0.684-0.685V50.076
						C218.059,49.698,217.752,49.391,217.375,49.391z"/>
				</g>
			</g>
			<g>
				<g>
					<path style="fill:#A4A7A9;" d="M233.498,67.631c0,0.654-0.531,1.185-1.184,1.185l0,0c-0.654,0-1.186-0.53-1.186-1.185V50.076
						c0-0.655,0.531-1.186,1.186-1.186l0,0c0.652,0,1.184,0.53,1.184,1.186V67.631z"/>
					<path style="fill:#7B7D80;" d="M232.314,69.315c-0.93,0-1.686-0.756-1.686-1.685V50.076c0-0.93,0.756-1.686,1.686-1.686
						c0.928,0,1.684,0.756,1.684,1.686v17.555C233.998,68.56,233.242,69.315,232.314,69.315z M232.314,49.391
						c-0.379,0-0.686,0.308-0.686,0.686v17.555c0,0.378,0.307,0.685,0.686,0.685c0.377,0,0.684-0.307,0.684-0.685V50.076
						C232.998,49.698,232.691,49.391,232.314,49.391z"/>
				</g>
				<g>
					<path style="fill:#A4A7A9;" d="M236.945,67.631c0,0.654-0.531,1.185-1.186,1.185l0,0c-0.654,0-1.184-0.53-1.184-1.185V50.076
						c0-0.655,0.529-1.186,1.184-1.186l0,0c0.654,0,1.186,0.53,1.186,1.186V67.631z"/>
					<path style="fill:#7B7D80;" d="M235.76,69.315c-0.928,0-1.684-0.756-1.684-1.685V50.076c0-0.93,0.756-1.686,1.684-1.686
						c0.93,0,1.686,0.756,1.686,1.686v17.555C237.445,68.56,236.689,69.315,235.76,69.315z M235.76,49.391
						c-0.377,0-0.684,0.308-0.684,0.686v17.555c0,0.378,0.307,0.685,0.684,0.685c0.379,0,0.686-0.307,0.686-0.685V50.076
						C236.445,49.698,236.139,49.391,235.76,49.391z"/>
				</g>
			</g>
			<g>
				<g>
					<path style="fill:#A4A7A9;" d="M251.885,67.631c0,0.654-0.531,1.185-1.186,1.185l0,0c-0.654,0-1.186-0.53-1.186-1.185V50.076
						c0-0.655,0.531-1.186,1.186-1.186l0,0c0.654,0,1.186,0.53,1.186,1.186V67.631z"/>
					<path style="fill:#7B7D80;" d="M250.699,69.315c-0.93,0-1.686-0.756-1.686-1.685V50.076c0-0.93,0.756-1.686,1.686-1.686
						s1.686,0.756,1.686,1.686v17.555C252.385,68.56,251.629,69.315,250.699,69.315z M250.699,49.391
						c-0.377,0-0.686,0.308-0.686,0.686v17.555c0,0.378,0.309,0.685,0.686,0.685c0.379,0,0.686-0.307,0.686-0.685V50.076
						C251.385,49.698,251.078,49.391,250.699,49.391z"/>
				</g>
				<g>
					<path style="fill:#A4A7A9;" d="M255.33,67.631c0,0.654-0.529,1.185-1.184,1.185l0,0c-0.654,0-1.186-0.53-1.186-1.185V50.076
						c0-0.655,0.531-1.186,1.186-1.186l0,0c0.654,0,1.184,0.53,1.184,1.186V67.631z"/>
					<path style="fill:#7B7D80;" d="M254.146,69.315c-0.93,0-1.686-0.756-1.686-1.685V50.076c0-0.93,0.756-1.686,1.686-1.686
						c0.928,0,1.684,0.756,1.684,1.686v17.555C255.83,68.56,255.074,69.315,254.146,69.315z M254.146,49.391
						c-0.379,0-0.686,0.308-0.686,0.686v17.555c0,0.378,0.307,0.685,0.686,0.685c0.377,0,0.684-0.307,0.684-0.685V50.076
						C254.83,49.698,254.523,49.391,254.146,49.391z"/>
				</g>
			</g>
			<g>
				<g>
					<path style="fill:#A4A7A9;" d="M270.27,67.631c0,0.654-0.529,1.185-1.184,1.185l0,0c-0.654,0-1.186-0.53-1.186-1.185V50.076
						c0-0.655,0.531-1.186,1.186-1.186l0,0c0.654,0,1.184,0.53,1.184,1.186V67.631z"/>
					<path style="fill:#7B7D80;" d="M269.086,69.315c-0.93,0-1.686-0.756-1.686-1.685V50.076c0-0.93,0.756-1.686,1.686-1.686
						c0.928,0,1.684,0.756,1.684,1.686v17.555C270.77,68.56,270.014,69.315,269.086,69.315z M269.086,49.391
						c-0.379,0-0.686,0.308-0.686,0.686v17.555c0,0.378,0.307,0.685,0.686,0.685c0.377,0,0.684-0.307,0.684-0.685V50.076
						C269.77,49.698,269.463,49.391,269.086,49.391z"/>
				</g>
				<g>
					<path style="fill:#A4A7A9;" d="M273.717,67.631c0,0.654-0.531,1.185-1.184,1.185l0,0c-0.654,0-1.186-0.53-1.186-1.185V50.076
						c0-0.655,0.531-1.186,1.186-1.186l0,0c0.652,0,1.184,0.53,1.184,1.186V67.631z"/>
					<path style="fill:#7B7D80;" d="M272.533,69.315c-0.93,0-1.686-0.756-1.686-1.685V50.076c0-0.93,0.756-1.686,1.686-1.686
						c0.928,0,1.684,0.756,1.684,1.686v17.555C274.217,68.56,273.461,69.315,272.533,69.315z M272.533,49.391
						c-0.379,0-0.686,0.308-0.686,0.686v17.555c0,0.378,0.307,0.685,0.686,0.685c0.377,0,0.684-0.307,0.684-0.685V50.076
						C273.217,49.698,272.91,49.391,272.533,49.391z"/>
				</g>
			</g>
			<g>
				<g>
					<path style="fill:#A4A7A9;" d="M288.656,67.631c0,0.654-0.531,1.185-1.184,1.185l0,0c-0.656,0-1.186-0.53-1.186-1.185V50.076
						c0-0.655,0.529-1.186,1.186-1.186l0,0c0.652,0,1.184,0.53,1.184,1.186V67.631z"/>
					<path style="fill:#7B7D80;" d="M287.473,69.315c-0.93,0-1.686-0.756-1.686-1.685V50.076c0-0.93,0.756-1.686,1.686-1.686
						c0.928,0,1.684,0.756,1.684,1.686v17.555C289.156,68.56,288.4,69.315,287.473,69.315z M287.473,49.391
						c-0.379,0-0.686,0.308-0.686,0.686v17.555c0,0.378,0.307,0.685,0.686,0.685c0.377,0,0.684-0.307,0.684-0.685V50.076
						C288.156,49.698,287.85,49.391,287.473,49.391z"/>
				</g>
				<g>
					<path style="fill:#A4A7A9;" d="M292.103,67.631c0,0.654-0.531,1.185-1.185,1.185l0,0c-0.654,0-1.184-0.53-1.184-1.185V50.076
						c0-0.655,0.529-1.186,1.184-1.186l0,0c0.654,0,1.185,0.53,1.185,1.186V67.631z"/>
					<path style="fill:#7B7D80;" d="M290.918,69.315c-0.928,0-1.684-0.756-1.684-1.685V50.076c0-0.93,0.756-1.686,1.684-1.686
						c0.93,0,1.685,0.756,1.685,1.686v17.555C292.603,68.56,291.848,69.315,290.918,69.315z M290.918,49.391
						c-0.377,0-0.684,0.308-0.684,0.686v17.555c0,0.378,0.307,0.685,0.684,0.685c0.379,0,0.685-0.307,0.685-0.685V50.076
						C291.603,49.698,291.297,49.391,290.918,49.391z"/>
				</g>
			</g>
			<g>
				<g>
					<path style="fill:#A4A7A9;" d="M307.043,67.631c0,0.654-0.531,1.185-1.186,1.185l0,0c-0.654,0-1.185-0.53-1.185-1.185V50.076
						c0-0.655,0.531-1.186,1.185-1.186l0,0c0.654,0,1.186,0.53,1.186,1.186V67.631z"/>
					<path style="fill:#7B7D80;" d="M305.857,69.315c-0.93,0-1.685-0.756-1.685-1.685V50.076c0-0.93,0.756-1.686,1.685-1.686
						c0.93,0,1.686,0.756,1.686,1.686v17.555C307.543,68.56,306.787,69.315,305.857,69.315z M305.857,49.391
						c-0.379,0-0.685,0.308-0.685,0.686v17.555c0,0.378,0.307,0.685,0.685,0.685c0.377,0,0.686-0.307,0.686-0.685V50.076
						C306.543,49.698,306.234,49.391,305.857,49.391z"/>
				</g>
				<g>
					<path style="fill:#A4A7A9;" d="M310.488,67.631c0,0.654-0.529,1.185-1.184,1.185l0,0c-0.654,0-1.186-0.53-1.186-1.185V50.076
						c0-0.655,0.531-1.186,1.186-1.186l0,0c0.654,0,1.184,0.53,1.184,1.186V67.631z"/>
					<path style="fill:#7B7D80;" d="M309.305,69.315c-0.93,0-1.686-0.756-1.686-1.685V50.076c0-0.93,0.756-1.686,1.686-1.686
						c0.928,0,1.684,0.756,1.684,1.686v17.555C310.988,68.56,310.232,69.315,309.305,69.315z M309.305,49.391
						c-0.379,0-0.686,0.308-0.686,0.686v17.555c0,0.378,0.307,0.685,0.686,0.685c0.377,0,0.684-0.307,0.684-0.685V50.076
						C309.988,49.698,309.682,49.391,309.305,49.391z"/>
				</g>
			</g>
			<g>
				<g>
					<path style="fill:#A4A7A9;" d="M325.428,67.631c0,0.654-0.531,1.185-1.184,1.185l0,0c-0.654,0-1.186-0.53-1.186-1.185V50.076
						c0-0.655,0.531-1.186,1.186-1.186l0,0c0.652,0,1.184,0.53,1.184,1.186V67.631z"/>
					<path style="fill:#7B7D80;" d="M324.244,69.315c-0.93,0-1.686-0.756-1.686-1.685V50.076c0-0.93,0.756-1.686,1.686-1.686
						c0.928,0,1.684,0.756,1.684,1.686v17.555C325.928,68.56,325.172,69.315,324.244,69.315z M324.244,49.391
						c-0.379,0-0.686,0.308-0.686,0.686v17.555c0,0.378,0.307,0.685,0.686,0.685c0.377,0,0.684-0.307,0.684-0.685V50.076
						C324.928,49.698,324.621,49.391,324.244,49.391z"/>
				</g>
				<g>
					<path style="fill:#A4A7A9;" d="M328.875,67.631c0,0.654-0.531,1.185-1.184,1.185l0,0c-0.656,0-1.186-0.53-1.186-1.185V50.076
						c0-0.655,0.529-1.186,1.186-1.186l0,0c0.652,0,1.184,0.53,1.184,1.186V67.631z"/>
					<path style="fill:#7B7D80;" d="M327.691,69.315c-0.93,0-1.686-0.756-1.686-1.685V50.076c0-0.93,0.756-1.686,1.686-1.686
						c0.928,0,1.684,0.756,1.684,1.686v17.555C329.375,68.56,328.619,69.315,327.691,69.315z M327.691,49.391
						c-0.379,0-0.686,0.308-0.686,0.686v17.555c0,0.378,0.307,0.685,0.686,0.685c0.377,0,0.684-0.307,0.684-0.685V50.076
						C328.375,49.698,328.068,49.391,327.691,49.391z"/>
				</g>
			</g>
		</g>
	</g>
</g>
</svg>
